<?xml version="1.0" encoding="UTF-8"?>
<!DOCTYPE svg PUBLIC "-//W3C//DTD SVG 1.1//EN" "http://www.w3.org/Graphics/SVG/1.1/DTD/svg11.dtd">
<svg xmlns="http://www.w3.org/2000/svg" xmlns:xlink="http://www.w3.org/1999/xlink" version="1.1" width="1211px" height="642px" viewBox="-0.5 -0.5 1211 642" style="background-color: rgb(255, 255, 255);"><defs><clipPath id="mx-clip-615-45-40-30-0"><rect x="615" y="45" width="40" height="30"/></clipPath><clipPath id="mx-clip-661-45-214-30-0"><rect x="661" y="45" width="214" height="30"/></clipPath><clipPath id="mx-clip-615-75-40-30-0"><rect x="615" y="75" width="40" height="30"/></clipPath><clipPath id="mx-clip-661-75-214-30-0"><rect x="661" y="75" width="214" height="30"/></clipPath><clipPath id="mx-clip-615-105-40-30-0"><rect x="615" y="105" width="40" height="30"/></clipPath><clipPath id="mx-clip-661-105-214-30-0"><rect x="661" y="105" width="214" height="30"/></clipPath><clipPath id="mx-clip-661-135-214-30-0"><rect x="661" y="135" width="214" height="30"/></clipPath><clipPath id="mx-clip-661-165-214-30-0"><rect x="661" y="165" width="214" height="30"/></clipPath><clipPath id="mx-clip-661-195-214-30-0"><rect x="661" y="195" width="214" height="30"/></clipPath><clipPath id="mx-clip-661-225-214-30-0"><rect x="661" y="225" width="214" height="30"/></clipPath><clipPath id="mx-clip-661-255-214-30-0"><rect x="661" y="255" width="214" height="30"/></clipPath><clipPath id="mx-clip-661-285-214-30-0"><rect x="661" y="285" width="214" height="30"/></clipPath><clipPath id="mx-clip-661-315-214-30-0"><rect x="661" y="315" width="214" height="30"/></clipPath><clipPath id="mx-clip-661-345-214-30-0"><rect x="661" y="345" width="214" height="30"/></clipPath><clipPath id="mx-clip-305-395-30-30-0"><rect x="305" y="395" width="30" height="30"/></clipPath><clipPath id="mx-clip-341-395-214-30-0"><rect x="341" y="395" width="214" height="30"/></clipPath><clipPath id="mx-clip-341-425-214-30-0"><rect x="341" y="425" width="214" height="30"/></clipPath><clipPath id="mx-clip-341-455-214-30-0"><rect x="341" y="455" width="214" height="30"/></clipPath><clipPath id="mx-clip-341-485-214-30-0"><rect x="341" y="485" width="214" height="30"/></clipPath><clipPath id="mx-clip-305-45-30-30-0"><rect x="305" y="45" width="30" height="30"/></clipPath><clipPath id="mx-clip-341-45-214-30-0"><rect x="341" y="45" width="214" height="30"/></clipPath><clipPath id="mx-clip-341-75-214-30-0"><rect x="341" y="75" width="214" height="30"/></clipPath><clipPath id="mx-clip-341-105-214-30-0"><rect x="341" y="105" width="214" height="30"/></clipPath><clipPath id="mx-clip-341-135-214-30-0"><rect x="341" y="135" width="214" height="30"/></clipPath><clipPath id="mx-clip-341-165-214-30-0"><rect x="341" y="165" width="214" height="30"/></clipPath><clipPath id="mx-clip-341-195-214-30-0"><rect x="341" y="195" width="214" height="30"/></clipPath><clipPath id="mx-clip-341-225-214-30-0"><rect x="341" y="225" width="214" height="30"/></clipPath><clipPath id="mx-clip-341-255-214-30-0"><rect x="341" y="255" width="214" height="30"/></clipPath><clipPath id="mx-clip-341-285-214-30-0"><rect x="341" y="285" width="214" height="30"/></clipPath><clipPath id="mx-clip-341-315-214-30-0"><rect x="341" y="315" width="214" height="30"/></clipPath><clipPath id="mx-clip-305-565-30-30-0"><rect x="305" y="565" width="30" height="30"/></clipPath><clipPath id="mx-clip-341-565-214-30-0"><rect x="341" y="565" width="214" height="30"/></clipPath><clipPath id="mx-clip-341-595-214-30-0"><rect x="341" y="595" width="214" height="30"/></clipPath><clipPath id="mx-clip-15-395-30-30-0"><rect x="15" y="395" width="30" height="30"/></clipPath><clipPath id="mx-clip-51-395-214-30-0"><rect x="51" y="395" width="214" height="30"/></clipPath><clipPath id="mx-clip-51-425-214-30-0"><rect x="51" y="425" width="214" height="30"/></clipPath><clipPath id="mx-clip-51-455-214-30-0"><rect x="51" y="455" width="214" height="30"/></clipPath><clipPath id="mx-clip-15-145-30-30-0"><rect x="15" y="145" width="30" height="30"/></clipPath><clipPath id="mx-clip-51-145-214-30-0"><rect x="51" y="145" width="214" height="30"/></clipPath><clipPath id="mx-clip-51-175-214-30-0"><rect x="51" y="175" width="214" height="30"/></clipPath><clipPath id="mx-clip-51-205-214-30-0"><rect x="51" y="205" width="214" height="30"/></clipPath><clipPath id="mx-clip-51-235-214-30-0"><rect x="51" y="235" width="214" height="30"/></clipPath><clipPath id="mx-clip-935-45-40-30-0"><rect x="935" y="45" width="40" height="30"/></clipPath><clipPath id="mx-clip-981-45-214-30-0"><rect x="981" y="45" width="214" height="30"/></clipPath><clipPath id="mx-clip-981-75-214-30-0"><rect x="981" y="75" width="214" height="30"/></clipPath><style type="text/css">@import url(https://fonts.googleapis.com/css2?family=Permanent+Marker:wght@400;500);&#xa;</style></defs><rect fill="#ffffff" width="100%" height="100%" x="0" y="0"/><g><g><path d="M 555 60 L 575 60 Q 585 60 585 67.5 L 585 71.25 Q 585 75 585 82.5 L 585 86.25 Q 585 90 595 90 L 615 90" fill="none" stroke="rgb(0, 0, 0)" stroke-miterlimit="10" pointer-events="stroke"/><path d="M 559 56 L 559 64" fill="none" stroke="rgb(0, 0, 0)" stroke-miterlimit="10" pointer-events="all"/><path d="M 615 86 L 607 90 L 615 94" fill="none" stroke="rgb(0, 0, 0)" stroke-miterlimit="10" pointer-events="all"/></g><g><path d="M 615 45 L 615 15 L 875 15 L 875 45" fill="rgb(255, 255, 255)" stroke="rgb(0, 0, 0)" stroke-miterlimit="10" pointer-events="all"/><path d="M 615 45 L 615 375 L 875 375 L 875 45" fill="none" stroke="rgb(0, 0, 0)" stroke-miterlimit="10" pointer-events="none"/><path d="M 615 45 L 875 45" fill="none" stroke="rgb(0, 0, 0)" stroke-miterlimit="10" pointer-events="none"/><path d="M 655 45 L 655 75 L 655 105 L 655 135 L 655 165 L 655 195 L 655 225 L 655 255 L 655 285 L 655 315 L 655 345 L 655 375" fill="none" stroke="rgb(0, 0, 0)" stroke-miterlimit="10" pointer-events="none"/></g><g><g fill="rgb(0, 0, 0)" font-family="Helvetica" font-weight="bold" text-anchor="middle" font-size="12px"><text x="744.5" y="34.5">Play</text></g></g><g><path d="M 615 45 M 875 45 M 875 75 L 615 75" fill="none" stroke="rgb(0, 0, 0)" stroke-linecap="square" stroke-miterlimit="10" pointer-events="none"/></g><g><rect x="615" y="45" width="40" height="30" fill="none" stroke="none" pointer-events="all"/><path d="M 615 45 M 655 45 M 655 75 M 615 75" fill="none" stroke="rgb(0, 0, 0)" stroke-linecap="square" stroke-miterlimit="10" pointer-events="all"/></g><g><g fill="rgb(0, 0, 0)" font-family="Helvetica" font-weight="bold" clip-path="url(#mx-clip-615-45-40-30-0)" text-anchor="middle" font-size="12px"><text x="634.5" y="64.5">PK</text></g></g><g><rect x="655" y="45" width="220" height="30" fill="none" stroke="none" pointer-events="all"/><path d="M 655 45 M 875 45 M 875 75 M 655 75" fill="none" stroke="rgb(0, 0, 0)" stroke-linecap="square" stroke-miterlimit="10" pointer-events="all"/></g><g><g fill="rgb(0, 0, 0)" font-family="Helvetica" font-weight="bold" text-decoration="underline" clip-path="url(#mx-clip-661-45-214-30-0)" font-size="12px"><text x="662.5" y="64.5">play_id</text></g></g><g><path d="M 615 75 M 875 75 M 875 105 M 615 105" fill="none" stroke="rgb(0, 0, 0)" stroke-linecap="square" stroke-miterlimit="10" pointer-events="none"/></g><g><rect x="615" y="75" width="40" height="30" fill="none" stroke="none" pointer-events="all"/><path d="M 615 75 M 655 75 M 655 105 M 615 105" fill="none" stroke="rgb(0, 0, 0)" stroke-linecap="square" stroke-miterlimit="10" pointer-events="all"/></g><g><g fill="rgb(0, 0, 0)" font-family="Helvetica" clip-path="url(#mx-clip-615-75-40-30-0)" text-anchor="middle" font-size="12px"><text x="634.5" y="94.5">FK1</text></g></g><g><rect x="655" y="75" width="220" height="30" fill="none" stroke="none" pointer-events="all"/><path d="M 655 75 M 875 75 M 875 105 M 655 105" fill="none" stroke="rgb(0, 0, 0)" stroke-linecap="square" stroke-miterlimit="10" pointer-events="all"/></g><g><g fill="rgb(0, 0, 0)" font-family="Helvetica" clip-path="url(#mx-clip-661-75-214-30-0)" font-size="12px"><text x="662.5" y="94.5">track</text></g></g><g><path d="M 615 105 M 875 105 M 875 135 M 615 135" fill="none" stroke="rgb(0, 0, 0)" stroke-linecap="square" stroke-miterlimit="10" pointer-events="none"/></g><g><rect x="615" y="105" width="40" height="30" fill="none" stroke="none" pointer-events="all"/><path d="M 615 105 M 655 105 M 655 135 M 615 135" fill="none" stroke="rgb(0, 0, 0)" stroke-linecap="square" stroke-miterlimit="10" pointer-events="all"/></g><g><g fill="rgb(0, 0, 0)" font-family="Helvetica" clip-path="url(#mx-clip-615-105-40-30-0)" text-anchor="middle" font-size="12px"><text x="634.5" y="124.5">FK2</text></g></g><g><rect x="655" y="105" width="220" height="30" fill="none" stroke="none" pointer-events="all"/><path d="M 655 105 M 875 105 M 875 135 M 655 135" fill="none" stroke="rgb(0, 0, 0)" stroke-linecap="square" stroke-miterlimit="10" pointer-events="all"/></g><g><g fill="rgb(0, 0, 0)" font-family="Helvetica" clip-path="url(#mx-clip-661-105-214-30-0)" font-size="12px"><text x="662.5" y="124.5">person_id</text></g></g><g><path d="M 615 135 M 875 135 M 875 165 M 615 165" fill="none" stroke="rgb(0, 0, 0)" stroke-linecap="square" stroke-miterlimit="10" pointer-events="none"/></g><g><rect x="615" y="135" width="40" height="30" fill="none" stroke="none" pointer-events="all"/><path d="M 615 135 M 655 135 M 655 165 M 615 165" fill="none" stroke="rgb(0, 0, 0)" stroke-linecap="square" stroke-miterlimit="10" pointer-events="all"/></g><g><rect x="655" y="135" width="220" height="30" fill="none" stroke="none" pointer-events="all"/><path d="M 655 135 M 875 135 M 875 165 M 655 165" fill="none" stroke="rgb(0, 0, 0)" stroke-linecap="square" stroke-miterlimit="10" pointer-events="all"/></g><g><g fill="rgb(0, 0, 0)" font-family="Helvetica" clip-path="url(#mx-clip-661-135-214-30-0)" font-size="12px"><text x="662.5" y="154.5">platform</text></g></g><g><path d="M 615 165 M 875 165 M 875 195 M 615 195" fill="none" stroke="rgb(0, 0, 0)" stroke-linecap="square" stroke-miterlimit="10" pointer-events="none"/></g><g><rect x="615" y="165" width="40" height="30" fill="none" stroke="none" pointer-events="all"/><path d="M 615 165 M 655 165 M 655 195 M 615 195" fill="none" stroke="rgb(0, 0, 0)" stroke-linecap="square" stroke-miterlimit="10" pointer-events="all"/></g><g><rect x="655" y="165" width="220" height="30" fill="none" stroke="none" pointer-events="all"/><path d="M 655 165 M 875 165 M 875 195 M 655 195" fill="none" stroke="rgb(0, 0, 0)" stroke-linecap="square" stroke-miterlimit="10" pointer-events="all"/></g><g><g fill="rgb(0, 0, 0)" font-family="Helvetica" clip-path="url(#mx-clip-661-165-214-30-0)" font-size="12px"><text x="662.5" y="184.5">conn_country</text></g></g><g><path d="M 615 195 M 875 195 M 875 225 M 615 225" fill="none" stroke="rgb(0, 0, 0)" stroke-linecap="square" stroke-miterlimit="10" pointer-events="none"/></g><g><rect x="615" y="195" width="40" height="30" fill="none" stroke="none" pointer-events="all"/><path d="M 615 195 M 655 195 M 655 225 M 615 225" fill="none" stroke="rgb(0, 0, 0)" stroke-linecap="square" stroke-miterlimit="10" pointer-events="all"/></g><g><rect x="655" y="195" width="220" height="30" fill="none" stroke="none" pointer-events="all"/><path d="M 655 195 M 875 195 M 875 225 M 655 225" fill="none" stroke="rgb(0, 0, 0)" stroke-linecap="square" stroke-miterlimit="10" pointer-events="all"/></g><g><g fill="rgb(0, 0, 0)" font-family="Helvetica" clip-path="url(#mx-clip-661-195-214-30-0)" font-size="12px"><text x="662.5" y="214.5">reason_start</text></g></g><g><path d="M 615 225 M 875 225 M 875 255 M 615 255" fill="none" stroke="rgb(0, 0, 0)" stroke-linecap="square" stroke-miterlimit="10" pointer-events="none"/></g><g><rect x="615" y="225" width="40" height="30" fill="none" stroke="none" pointer-events="all"/><path d="M 615 225 M 655 225 M 655 255 M 615 255" fill="none" stroke="rgb(0, 0, 0)" stroke-linecap="square" stroke-miterlimit="10" pointer-events="all"/></g><g><rect x="655" y="225" width="220" height="30" fill="none" stroke="none" pointer-events="all"/><path d="M 655 225 M 875 225 M 875 255 M 655 255" fill="none" stroke="rgb(0, 0, 0)" stroke-linecap="square" stroke-miterlimit="10" pointer-events="all"/></g><g><g fill="rgb(0, 0, 0)" font-family="Helvetica" clip-path="url(#mx-clip-661-225-214-30-0)" font-size="12px"><text x="662.5" y="244.5">reason_end</text></g></g><g><path d="M 615 255 M 875 255 M 875 285 M 615 285" fill="none" stroke="rgb(0, 0, 0)" stroke-linecap="square" stroke-miterlimit="10" pointer-events="none"/></g><g><rect x="615" y="255" width="40" height="30" fill="none" stroke="none" pointer-events="all"/><path d="M 615 255 M 655 255 M 655 285 M 615 285" fill="none" stroke="rgb(0, 0, 0)" stroke-linecap="square" stroke-miterlimit="10" pointer-events="all"/></g><g><rect x="655" y="255" width="220" height="30" fill="none" stroke="none" pointer-events="all"/><path d="M 655 255 M 875 255 M 875 285 M 655 285" fill="none" stroke="rgb(0, 0, 0)" stroke-linecap="square" stroke-miterlimit="10" pointer-events="all"/></g><g><g fill="rgb(0, 0, 0)" font-family="Helvetica" clip-path="url(#mx-clip-661-255-214-30-0)" font-size="12px"><text x="662.5" y="274.5">ms_played</text></g></g><g><path d="M 615 285 M 875 285 M 875 315 M 615 315" fill="none" stroke="rgb(0, 0, 0)" stroke-linecap="square" stroke-miterlimit="10" pointer-events="none"/></g><g><rect x="615" y="285" width="40" height="30" fill="none" stroke="none" pointer-events="all"/><path d="M 615 285 M 655 285 M 655 315 M 615 315" fill="none" stroke="rgb(0, 0, 0)" stroke-linecap="square" stroke-miterlimit="10" pointer-events="all"/></g><g><rect x="655" y="285" width="220" height="30" fill="none" stroke="none" pointer-events="all"/><path d="M 655 285 M 875 285 M 875 315 M 655 315" fill="none" stroke="rgb(0, 0, 0)" stroke-linecap="square" stroke-miterlimit="10" pointer-events="all"/></g><g><g fill="rgb(0, 0, 0)" font-family="Helvetica" clip-path="url(#mx-clip-661-285-214-30-0)" font-size="12px"><text x="662.5" y="304.5">skipped</text></g></g><g><path d="M 615 315 M 875 315 M 875 345 M 615 345" fill="none" stroke="rgb(0, 0, 0)" stroke-linecap="square" stroke-miterlimit="10" pointer-events="none"/></g><g><rect x="615" y="315" width="40" height="30" fill="none" stroke="none" pointer-events="all"/><path d="M 615 315 M 655 315 M 655 345 M 615 345" fill="none" stroke="rgb(0, 0, 0)" stroke-linecap="square" stroke-miterlimit="10" pointer-events="all"/></g><g><rect x="655" y="315" width="220" height="30" fill="none" stroke="none" pointer-events="all"/><path d="M 655 315 M 875 315 M 875 345 M 655 345" fill="none" stroke="rgb(0, 0, 0)" stroke-linecap="square" stroke-miterlimit="10" pointer-events="all"/></g><g><g fill="rgb(0, 0, 0)" font-family="Helvetica" clip-path="url(#mx-clip-661-315-214-30-0)" font-size="12px"><text x="662.5" y="334.5">shuffle</text></g></g><g><path d="M 615 345 M 875 345 M 875 375 M 615 375" fill="none" stroke="rgb(0, 0, 0)" stroke-linecap="square" stroke-miterlimit="10" pointer-events="none"/></g><g><rect x="615" y="345" width="40" height="30" fill="none" stroke="none" pointer-events="all"/><path d="M 615 345 M 655 345 M 655 375 M 615 375" fill="none" stroke="rgb(0, 0, 0)" stroke-linecap="square" stroke-miterlimit="10" pointer-events="all"/></g><g><rect x="655" y="345" width="220" height="30" fill="none" stroke="none" pointer-events="all"/><path d="M 655 345 M 875 345 M 875 375 M 655 375" fill="none" stroke="rgb(0, 0, 0)" stroke-linecap="square" stroke-miterlimit="10" pointer-events="all"/></g><g><g fill="rgb(0, 0, 0)" font-family="Helvetica" clip-path="url(#mx-clip-661-345-214-30-0)" font-size="12px"><text x="662.5" y="364.5">timestamp</text></g></g><g><path d="M 305 395 L 305 365 L 555 365 L 555 395" fill="rgb(255, 255, 255)" stroke="rgb(0, 0, 0)" stroke-miterlimit="10" pointer-events="all"/><path d="M 305 395 L 305 515 L 555 515 L 555 395" fill="none" stroke="rgb(0, 0, 0)" stroke-miterlimit="10" pointer-events="none"/><path d="M 305 395 L 555 395" fill="none" stroke="rgb(0, 0, 0)" stroke-miterlimit="10" pointer-events="none"/><path d="M 335 395 L 335 425 L 335 455 L 335 485 L 335 515" fill="none" stroke="rgb(0, 0, 0)" stroke-miterlimit="10" pointer-events="none"/></g><g><g fill="rgb(0, 0, 0)" font-family="Helvetica" font-weight="bold" text-anchor="middle" font-size="12px"><text x="429.5" y="384.5">Artist</text></g></g><g><path d="M 305 395 M 555 395 M 555 425 L 305 425" fill="none" stroke="rgb(0, 0, 0)" stroke-linecap="square" stroke-miterlimit="10" pointer-events="none"/></g><g><rect x="305" y="395" width="30" height="30" fill="none" stroke="none" pointer-events="all"/><path d="M 305 395 M 335 395 M 335 425 M 305 425" fill="none" stroke="rgb(0, 0, 0)" stroke-linecap="square" stroke-miterlimit="10" pointer-events="all"/></g><g><g fill="rgb(0, 0, 0)" font-family="Helvetica" font-weight="bold" clip-path="url(#mx-clip-305-395-30-30-0)" text-anchor="middle" font-size="12px"><text x="319.5" y="414.5">PK</text></g></g><g><rect x="335" y="395" width="220" height="30" fill="none" stroke="none" pointer-events="all"/><path d="M 335 395 M 555 395 M 555 425 M 335 425" fill="none" stroke="rgb(0, 0, 0)" stroke-linecap="square" stroke-miterlimit="10" pointer-events="all"/></g><g><g fill="rgb(0, 0, 0)" font-family="Helvetica" font-weight="bold" text-decoration="underline" clip-path="url(#mx-clip-341-395-214-30-0)" font-size="12px"><text x="342.5" y="414.5">artist_id</text></g></g><g><path d="M 305 425 M 555 425 M 555 455 M 305 455" fill="none" stroke="rgb(0, 0, 0)" stroke-linecap="square" stroke-miterlimit="10" pointer-events="none"/></g><g><rect x="305" y="425" width="30" height="30" fill="none" stroke="none" pointer-events="all"/><path d="M 305 425 M 335 425 M 335 455 M 305 455" fill="none" stroke="rgb(0, 0, 0)" stroke-linecap="square" stroke-miterlimit="10" pointer-events="all"/></g><g><rect x="335" y="425" width="220" height="30" fill="none" stroke="none" pointer-events="all"/><path d="M 335 425 M 555 425 M 555 455 M 335 455" fill="none" stroke="rgb(0, 0, 0)" stroke-linecap="square" stroke-miterlimit="10" pointer-events="all"/></g><g><g fill="rgb(0, 0, 0)" font-family="Helvetica" clip-path="url(#mx-clip-341-425-214-30-0)" font-size="12px"><text x="342.5" y="444.5">artist name</text></g></g><g><path d="M 305 455 M 555 455 M 555 485 M 305 485" fill="none" stroke="rgb(0, 0, 0)" stroke-linecap="square" stroke-miterlimit="10" pointer-events="none"/></g><g><rect x="305" y="455" width="30" height="30" fill="none" stroke="none" pointer-events="all"/><path d="M 305 455 M 335 455 M 335 485 M 305 485" fill="none" stroke="rgb(0, 0, 0)" stroke-linecap="square" stroke-miterlimit="10" pointer-events="all"/></g><g><rect x="335" y="455" width="220" height="30" fill="none" stroke="none" pointer-events="all"/><path d="M 335 455 M 555 455 M 555 485 M 335 485" fill="none" stroke="rgb(0, 0, 0)" stroke-linecap="square" stroke-miterlimit="10" pointer-events="all"/></g><g><g fill="rgb(0, 0, 0)" font-family="Helvetica" clip-path="url(#mx-clip-341-455-214-30-0)" font-size="12px"><text x="342.5" y="474.5">(followers)</text></g></g><g><path d="M 305 485 M 555 485 M 555 515 M 305 515" fill="none" stroke="rgb(0, 0, 0)" stroke-linecap="square" stroke-miterlimit="10" pointer-events="none"/></g><g><rect x="305" y="485" width="30" height="30" fill="none" stroke="none" pointer-events="all"/><path d="M 305 485 M 335 485 M 335 515 M 305 515" fill="none" stroke="rgb(0, 0, 0)" stroke-linecap="square" stroke-miterlimit="10" pointer-events="all"/></g><g><rect x="335" y="485" width="220" height="30" fill="none" stroke="none" pointer-events="all"/><path d="M 335 485 M 555 485 M 555 515 M 335 515" fill="none" stroke="rgb(0, 0, 0)" stroke-linecap="square" stroke-miterlimit="10" pointer-events="all"/></g><g><g fill="rgb(0, 0, 0)" font-family="Helvetica" clip-path="url(#mx-clip-341-485-214-30-0)" font-size="12px"><text x="342.5" y="504.5">(popularity)</text></g></g><g><path d="M 305 45 L 305 15 L 555 15 L 555 45" fill="rgb(255, 255, 255)" stroke="rgb(0, 0, 0)" stroke-miterlimit="10" pointer-events="all"/><path d="M 305 45 L 305 345 L 555 345 L 555 45" fill="none" stroke="rgb(0, 0, 0)" stroke-miterlimit="10" pointer-events="none"/><path d="M 305 45 L 555 45" fill="none" stroke="rgb(0, 0, 0)" stroke-miterlimit="10" pointer-events="none"/><path d="M 335 45 L 335 75 L 335 105 L 335 135 L 335 165 L 335 195 L 335 225 L 335 255 L 335 285 L 335 315 L 335 345" fill="none" stroke="rgb(0, 0, 0)" stroke-miterlimit="10" pointer-events="none"/></g><g><g fill="rgb(0, 0, 0)" font-family="Helvetica" font-weight="bold" text-anchor="middle" font-size="12px"><text x="429.5" y="34.5">Track</text></g></g><g><path d="M 305 45 M 555 45 M 555 75 L 305 75" fill="none" stroke="rgb(0, 0, 0)" stroke-linecap="square" stroke-miterlimit="10" pointer-events="none"/></g><g><rect x="305" y="45" width="30" height="30" fill="none" stroke="none" pointer-events="all"/><path d="M 305 45 M 335 45 M 335 75 M 305 75" fill="none" stroke="rgb(0, 0, 0)" stroke-linecap="square" stroke-miterlimit="10" pointer-events="all"/></g><g><g fill="rgb(0, 0, 0)" font-family="Helvetica" font-weight="bold" clip-path="url(#mx-clip-305-45-30-30-0)" text-anchor="middle" font-size="12px"><text x="319.5" y="64.5">PK</text></g></g><g><rect x="335" y="45" width="220" height="30" fill="none" stroke="none" pointer-events="all"/><path d="M 335 45 M 555 45 M 555 75 M 335 75" fill="none" stroke="rgb(0, 0, 0)" stroke-linecap="square" stroke-miterlimit="10" pointer-events="all"/></g><g><g fill="rgb(0, 0, 0)" font-family="Helvetica" font-weight="bold" text-decoration="underline" clip-path="url(#mx-clip-341-45-214-30-0)" font-size="12px"><text x="342.5" y="64.5">spotify_id</text></g></g><g><path d="M 305 75 M 555 75 M 555 105 M 305 105" fill="none" stroke="rgb(0, 0, 0)" stroke-linecap="square" stroke-miterlimit="10" pointer-events="none"/></g><g><rect x="305" y="75" width="30" height="30" fill="none" stroke="none" pointer-events="all"/><path d="M 305 75 M 335 75 M 335 105 M 305 105" fill="none" stroke="rgb(0, 0, 0)" stroke-linecap="square" stroke-miterlimit="10" pointer-events="all"/></g><g><rect x="335" y="75" width="220" height="30" fill="none" stroke="none" pointer-events="all"/><path d="M 335 75 M 555 75 M 555 105 M 335 105" fill="none" stroke="rgb(0, 0, 0)" stroke-linecap="square" stroke-miterlimit="10" pointer-events="all"/></g><g><g fill="rgb(0, 0, 0)" font-family="Helvetica" clip-path="url(#mx-clip-341-75-214-30-0)" font-size="12px"><text x="342.5" y="94.5">track name</text></g></g><g><path d="M 305 105 M 555 105 M 555 135 M 305 135" fill="none" stroke="rgb(0, 0, 0)" stroke-linecap="square" stroke-miterlimit="10" pointer-events="none"/></g><g><rect x="305" y="105" width="30" height="30" fill="none" stroke="none" pointer-events="all"/><path d="M 305 105 M 335 105 M 335 135 M 305 135" fill="none" stroke="rgb(0, 0, 0)" stroke-linecap="square" stroke-miterlimit="10" pointer-events="all"/></g><g><rect x="335" y="105" width="220" height="30" fill="none" stroke="none" pointer-events="all"/><path d="M 335 105 M 555 105 M 555 135 M 335 135" fill="none" stroke="rgb(0, 0, 0)" stroke-linecap="square" stroke-miterlimit="10" pointer-events="all"/></g><g><g fill="rgb(0, 0, 0)" font-family="Helvetica" clip-path="url(#mx-clip-341-105-214-30-0)" font-size="12px"><text x="342.5" y="124.5">album name</text></g></g><g><path d="M 305 135 M 555 135 M 555 165 M 305 165" fill="none" stroke="rgb(0, 0, 0)" stroke-linecap="square" stroke-miterlimit="10" pointer-events="none"/></g><g><rect x="305" y="135" width="30" height="30" fill="none" stroke="none" pointer-events="all"/><path d="M 305 135 M 335 135 M 335 165 M 305 165" fill="none" stroke="rgb(0, 0, 0)" stroke-linecap="square" stroke-miterlimit="10" pointer-events="all"/></g><g><rect x="335" y="135" width="220" height="30" fill="none" stroke="none" pointer-events="all"/><path d="M 335 135 M 555 135 M 555 165 M 335 165" fill="none" stroke="rgb(0, 0, 0)" stroke-linecap="square" stroke-miterlimit="10" pointer-events="all"/></g><g><g fill="rgb(0, 0, 0)" font-family="Helvetica" clip-path="url(#mx-clip-341-135-214-30-0)" font-size="12px"><text x="342.5" y="154.5">spotify track uri</text></g></g><g><path d="M 305 165 M 555 165 M 555 195 M 305 195" fill="none" stroke="rgb(0, 0, 0)" stroke-linecap="square" stroke-miterlimit="10" pointer-events="none"/></g><g><rect x="305" y="165" width="30" height="30" fill="none" stroke="none" pointer-events="all"/><path d="M 305 165 M 335 165 M 335 195 M 305 195" fill="none" stroke="rgb(0, 0, 0)" stroke-linecap="square" stroke-miterlimit="10" pointer-events="all"/></g><g><rect x="335" y="165" width="220" height="30" fill="none" stroke="none" pointer-events="all"/><path d="M 335 165 M 555 165 M 555 195 M 335 195" fill="none" stroke="rgb(0, 0, 0)" stroke-linecap="square" stroke-miterlimit="10" pointer-events="all"/></g><g><g fill="rgb(0, 0, 0)" font-family="Helvetica" clip-path="url(#mx-clip-341-165-214-30-0)" font-size="12px"><text x="342.5" y="184.5">length (ms)</text></g></g><g><path d="M 305 195 M 555 195 M 555 225 M 305 225" fill="none" stroke="rgb(0, 0, 0)" stroke-linecap="square" stroke-miterlimit="10" pointer-events="none"/></g><g><rect x="305" y="195" width="30" height="30" fill="none" stroke="none" pointer-events="all"/><path d="M 305 195 M 335 195 M 335 225 M 305 225" fill="none" stroke="rgb(0, 0, 0)" stroke-linecap="square" stroke-miterlimit="10" pointer-events="all"/></g><g><rect x="335" y="195" width="220" height="30" fill="none" stroke="none" pointer-events="all"/><path d="M 335 195 M 555 195 M 555 225 M 335 225" fill="none" stroke="rgb(0, 0, 0)" stroke-linecap="square" stroke-miterlimit="10" pointer-events="all"/></g><g><g fill="rgb(0, 0, 0)" font-family="Helvetica" clip-path="url(#mx-clip-341-195-214-30-0)" font-size="12px"><text x="342.5" y="214.5">bpm</text></g></g><g><path d="M 305 225 M 555 225 M 555 255 M 305 255" fill="none" stroke="rgb(0, 0, 0)" stroke-linecap="square" stroke-miterlimit="10" pointer-events="none"/></g><g><rect x="305" y="225" width="30" height="30" fill="none" stroke="none" pointer-events="all"/><path d="M 305 225 M 335 225 M 335 255 M 305 255" fill="none" stroke="rgb(0, 0, 0)" stroke-linecap="square" stroke-miterlimit="10" pointer-events="all"/></g><g><rect x="335" y="225" width="220" height="30" fill="none" stroke="none" pointer-events="all"/><path d="M 335 225 M 555 225 M 555 255 M 335 255" fill="none" stroke="rgb(0, 0, 0)" stroke-linecap="square" stroke-miterlimit="10" pointer-events="all"/></g><g><g fill="rgb(0, 0, 0)" font-family="Helvetica" clip-path="url(#mx-clip-341-225-214-30-0)" font-size="12px"><text x="342.5" y="244.5">dancebility</text></g></g><g><path d="M 305 255 M 555 255 M 555 285 M 305 285" fill="none" stroke="rgb(0, 0, 0)" stroke-linecap="square" stroke-miterlimit="10" pointer-events="none"/></g><g><rect x="305" y="255" width="30" height="30" fill="none" stroke="none" pointer-events="all"/><path d="M 305 255 M 335 255 M 335 285 M 305 285" fill="none" stroke="rgb(0, 0, 0)" stroke-linecap="square" stroke-miterlimit="10" pointer-events="all"/></g><g><rect x="335" y="255" width="220" height="30" fill="none" stroke="none" pointer-events="all"/><path d="M 335 255 M 555 255 M 555 285 M 335 285" fill="none" stroke="rgb(0, 0, 0)" stroke-linecap="square" stroke-miterlimit="10" pointer-events="all"/></g><g><g fill="rgb(0, 0, 0)" font-family="Helvetica" clip-path="url(#mx-clip-341-255-214-30-0)" font-size="12px"><text x="342.5" y="274.5">explicit</text></g></g><g><path d="M 305 285 M 555 285 M 555 315 M 305 315" fill="none" stroke="rgb(0, 0, 0)" stroke-linecap="square" stroke-miterlimit="10" pointer-events="none"/></g><g><rect x="305" y="285" width="30" height="30" fill="none" stroke="none" pointer-events="all"/><path d="M 305 285 M 335 285 M 335 315 M 305 315" fill="none" stroke="rgb(0, 0, 0)" stroke-linecap="square" stroke-miterlimit="10" pointer-events="all"/></g><g><rect x="335" y="285" width="220" height="30" fill="none" stroke="none" pointer-events="all"/><path d="M 335 285 M 555 285 M 555 315 M 335 315" fill="none" stroke="rgb(0, 0, 0)" stroke-linecap="square" stroke-miterlimit="10" pointer-events="all"/></g><g><g fill="rgb(0, 0, 0)" font-family="Helvetica" clip-path="url(#mx-clip-341-285-214-30-0)" font-size="12px"><text x="342.5" y="304.5">(followers)</text></g></g><g><path d="M 305 315 M 555 315 M 555 345 M 305 345" fill="none" stroke="rgb(0, 0, 0)" stroke-linecap="square" stroke-miterlimit="10" pointer-events="none"/></g><g><rect x="305" y="315" width="30" height="30" fill="none" stroke="none" pointer-events="all"/><path d="M 305 315 M 335 315 M 335 345 M 305 345" fill="none" stroke="rgb(0, 0, 0)" stroke-linecap="square" stroke-miterlimit="10" pointer-events="all"/></g><g><rect x="335" y="315" width="220" height="30" fill="none" stroke="none" pointer-events="all"/><path d="M 335 315 M 555 315 M 555 345 M 335 345" fill="none" stroke="rgb(0, 0, 0)" stroke-linecap="square" stroke-miterlimit="10" pointer-events="all"/></g><g><g fill="rgb(0, 0, 0)" font-family="Helvetica" clip-path="url(#mx-clip-341-315-214-30-0)" font-size="12px"><text x="342.5" y="334.5">(popularity)</text></g></g><g><path d="M 305 565 L 305 535 L 555 535 L 555 565" fill="rgb(255, 255, 255)" stroke="rgb(0, 0, 0)" stroke-miterlimit="10" pointer-events="all"/><path d="M 305 565 L 305 625 L 555 625 L 555 565" fill="none" stroke="rgb(0, 0, 0)" stroke-miterlimit="10" pointer-events="none"/><path d="M 305 565 L 555 565" fill="none" stroke="rgb(0, 0, 0)" stroke-miterlimit="10" pointer-events="none"/><path d="M 335 565 L 335 595 L 335 625" fill="none" stroke="rgb(0, 0, 0)" stroke-miterlimit="10" pointer-events="none"/></g><g><g fill="rgb(0, 0, 0)" font-family="Helvetica" font-weight="bold" text-anchor="middle" font-size="12px"><text x="429.5" y="554.5">Genre</text></g></g><g><path d="M 305 565 M 555 565 M 555 595 L 305 595" fill="none" stroke="rgb(0, 0, 0)" stroke-linecap="square" stroke-miterlimit="10" pointer-events="none"/></g><g><rect x="305" y="565" width="30" height="30" fill="none" stroke="none" pointer-events="all"/><path d="M 305 565 M 335 565 M 335 595 M 305 595" fill="none" stroke="rgb(0, 0, 0)" stroke-linecap="square" stroke-miterlimit="10" pointer-events="all"/></g><g><g fill="rgb(0, 0, 0)" font-family="Helvetica" font-weight="bold" clip-path="url(#mx-clip-305-565-30-30-0)" text-anchor="middle" font-size="12px"><text x="319.5" y="584.5">PK</text></g></g><g><rect x="335" y="565" width="220" height="30" fill="none" stroke="none" pointer-events="all"/><path d="M 335 565 M 555 565 M 555 595 M 335 595" fill="none" stroke="rgb(0, 0, 0)" stroke-linecap="square" stroke-miterlimit="10" pointer-events="all"/></g><g><g fill="rgb(0, 0, 0)" font-family="Helvetica" font-weight="bold" text-decoration="underline" clip-path="url(#mx-clip-341-565-214-30-0)" font-size="12px"><text x="342.5" y="584.5">genre_id</text></g></g><g><path d="M 305 595 M 555 595 M 555 625 M 305 625" fill="none" stroke="rgb(0, 0, 0)" stroke-linecap="square" stroke-miterlimit="10" pointer-events="none"/></g><g><rect x="305" y="595" width="30" height="30" fill="none" stroke="none" pointer-events="all"/><path d="M 305 595 M 335 595 M 335 625 M 305 625" fill="none" stroke="rgb(0, 0, 0)" stroke-linecap="square" stroke-miterlimit="10" pointer-events="all"/></g><g><rect x="335" y="595" width="220" height="30" fill="none" stroke="none" pointer-events="all"/><path d="M 335 595 M 555 595 M 555 625 M 335 625" fill="none" stroke="rgb(0, 0, 0)" stroke-linecap="square" stroke-miterlimit="10" pointer-events="all"/></g><g><g fill="rgb(0, 0, 0)" font-family="Helvetica" clip-path="url(#mx-clip-341-595-214-30-0)" font-size="12px"><text x="342.5" y="614.5">genre</text></g></g><g><path d="M 15 395 L 15 365 L 265 365 L 265 395" fill="rgb(255, 255, 255)" stroke="rgb(0, 0, 0)" stroke-miterlimit="10" pointer-events="all"/><path d="M 15 395 L 15 485 L 265 485 L 265 395" fill="none" stroke="rgb(0, 0, 0)" stroke-miterlimit="10" pointer-events="none"/><path d="M 15 395 L 265 395" fill="none" stroke="rgb(0, 0, 0)" stroke-miterlimit="10" pointer-events="none"/><path d="M 45 395 L 45 425 L 45 455 L 45 485" fill="none" stroke="rgb(0, 0, 0)" stroke-miterlimit="10" pointer-events="none"/></g><g><g fill="rgb(0, 0, 0)" font-family="Helvetica" font-weight="bold" text-anchor="middle" font-size="12px"><text x="139.5" y="384.5">artist_genre</text></g></g><g><path d="M 15 395 M 265 395 M 265 425 L 15 425" fill="none" stroke="rgb(0, 0, 0)" stroke-linecap="square" stroke-miterlimit="10" pointer-events="none"/></g><g><rect x="15" y="395" width="30" height="30" fill="none" stroke="none" pointer-events="all"/><path d="M 15 395 M 45 395 M 45 425 M 15 425" fill="none" stroke="rgb(0, 0, 0)" stroke-linecap="square" stroke-miterlimit="10" pointer-events="all"/></g><g><g fill="rgb(0, 0, 0)" font-family="Helvetica" font-weight="bold" clip-path="url(#mx-clip-15-395-30-30-0)" text-anchor="middle" font-size="12px"><text x="29.5" y="414.5">PK</text></g></g><g><rect x="45" y="395" width="220" height="30" fill="none" stroke="none" pointer-events="all"/><path d="M 45 395 M 265 395 M 265 425 M 45 425" fill="none" stroke="rgb(0, 0, 0)" stroke-linecap="square" stroke-miterlimit="10" pointer-events="all"/></g><g><g fill="rgb(0, 0, 0)" font-family="Helvetica" font-weight="bold" text-decoration="underline" clip-path="url(#mx-clip-51-395-214-30-0)" font-size="12px"><text x="52.5" y="414.5">genre_artist_id</text></g></g><g><path d="M 15 425 M 265 425 M 265 455 M 15 455" fill="none" stroke="rgb(0, 0, 0)" stroke-linecap="square" stroke-miterlimit="10" pointer-events="none"/></g><g><rect x="15" y="425" width="30" height="30" fill="none" stroke="none" pointer-events="all"/><path d="M 15 425 M 45 425 M 45 455 M 15 455" fill="none" stroke="rgb(0, 0, 0)" stroke-linecap="square" stroke-miterlimit="10" pointer-events="all"/></g><g><rect x="45" y="425" width="220" height="30" fill="none" stroke="none" pointer-events="all"/><path d="M 45 425 M 265 425 M 265 455 M 45 455" fill="none" stroke="rgb(0, 0, 0)" stroke-linecap="square" stroke-miterlimit="10" pointer-events="all"/></g><g><g fill="rgb(0, 0, 0)" font-family="Helvetica" clip-path="url(#mx-clip-51-425-214-30-0)" font-size="12px"><text x="52.5" y="444.5">artist_id</text></g></g><g><path d="M 15 455 M 265 455 M 265 485 M 15 485" fill="none" stroke="rgb(0, 0, 0)" stroke-linecap="square" stroke-miterlimit="10" pointer-events="none"/></g><g><rect x="15" y="455" width="30" height="30" fill="none" stroke="none" pointer-events="all"/><path d="M 15 455 M 45 455 M 45 485 M 15 485" fill="none" stroke="rgb(0, 0, 0)" stroke-linecap="square" stroke-miterlimit="10" pointer-events="all"/></g><g><rect x="45" y="455" width="220" height="30" fill="none" stroke="none" pointer-events="all"/><path d="M 45 455 M 265 455 M 265 485 M 45 485" fill="none" stroke="rgb(0, 0, 0)" stroke-linecap="square" stroke-miterlimit="10" pointer-events="all"/></g><g><g fill="rgb(0, 0, 0)" font-family="Helvetica" clip-path="url(#mx-clip-51-455-214-30-0)" font-size="12px"><text x="52.5" y="474.5">genre_id</text></g></g><g><path d="M 265 470 L 285 470 L 285 580 L 305 580" fill="none" stroke="rgb(0, 0, 0)" stroke-miterlimit="10" pointer-events="stroke"/><path d="M 265 474 L 273 470 L 265 466" fill="none" stroke="rgb(0, 0, 0)" stroke-miterlimit="10" pointer-events="all"/><path d="M 301 584 L 301 576" fill="none" stroke="rgb(0, 0, 0)" stroke-miterlimit="10" pointer-events="all"/></g><g><path d="M 265 440 L 285 440 L 285 410 L 305 410" fill="none" stroke="rgb(0, 0, 0)" stroke-miterlimit="10" pointer-events="stroke"/><path d="M 265 444 L 273 440 L 265 436" fill="none" stroke="rgb(0, 0, 0)" stroke-miterlimit="10" pointer-events="all"/><path d="M 301 414 L 301 406" fill="none" stroke="rgb(0, 0, 0)" stroke-miterlimit="10" pointer-events="all"/></g><g><path d="M 15 145 L 15 115 L 265 115 L 265 145" fill="rgb(255, 255, 255)" stroke="rgb(0, 0, 0)" stroke-miterlimit="10" pointer-events="all"/><path d="M 15 145 L 15 265 L 265 265 L 265 145" fill="none" stroke="rgb(0, 0, 0)" stroke-miterlimit="10" pointer-events="none"/><path d="M 15 145 L 265 145" fill="none" stroke="rgb(0, 0, 0)" stroke-miterlimit="10" pointer-events="none"/><path d="M 45 145 L 45 175 L 45 205 L 45 235 L 45 265" fill="none" stroke="rgb(0, 0, 0)" stroke-miterlimit="10" pointer-events="none"/></g><g><g fill="rgb(0, 0, 0)" font-family="Helvetica" font-weight="bold" text-anchor="middle" font-size="12px"><text x="139.5" y="134.5">artist_track</text></g></g><g><path d="M 15 145 M 265 145 M 265 175 L 15 175" fill="none" stroke="rgb(0, 0, 0)" stroke-linecap="square" stroke-miterlimit="10" pointer-events="none"/></g><g><rect x="15" y="145" width="30" height="30" fill="none" stroke="none" pointer-events="all"/><path d="M 15 145 M 45 145 M 45 175 M 15 175" fill="none" stroke="rgb(0, 0, 0)" stroke-linecap="square" stroke-miterlimit="10" pointer-events="all"/></g><g><g fill="rgb(0, 0, 0)" font-family="Helvetica" font-weight="bold" clip-path="url(#mx-clip-15-145-30-30-0)" text-anchor="middle" font-size="12px"><text x="29.5" y="164.5">PK</text></g></g><g><rect x="45" y="145" width="220" height="30" fill="none" stroke="none" pointer-events="all"/><path d="M 45 145 M 265 145 M 265 175 M 45 175" fill="none" stroke="rgb(0, 0, 0)" stroke-linecap="square" stroke-miterlimit="10" pointer-events="all"/></g><g><g fill="rgb(0, 0, 0)" font-family="Helvetica" font-weight="bold" text-decoration="underline" clip-path="url(#mx-clip-51-145-214-30-0)" font-size="12px"><text x="52.5" y="164.5">genre_artist_id</text></g></g><g><path d="M 15 175 M 265 175 M 265 205 M 15 205" fill="none" stroke="rgb(0, 0, 0)" stroke-linecap="square" stroke-miterlimit="10" pointer-events="none"/></g><g><rect x="15" y="175" width="30" height="30" fill="none" stroke="none" pointer-events="all"/><path d="M 15 175 M 45 175 M 45 205 M 15 205" fill="none" stroke="rgb(0, 0, 0)" stroke-linecap="square" stroke-miterlimit="10" pointer-events="all"/></g><g><rect x="45" y="175" width="220" height="30" fill="none" stroke="none" pointer-events="all"/><path d="M 45 175 M 265 175 M 265 205 M 45 205" fill="none" stroke="rgb(0, 0, 0)" stroke-linecap="square" stroke-miterlimit="10" pointer-events="all"/></g><g><g fill="rgb(0, 0, 0)" font-family="Helvetica" clip-path="url(#mx-clip-51-175-214-30-0)" font-size="12px"><text x="52.5" y="194.5">track_id</text></g></g><g><path d="M 15 205 M 265 205 M 265 235 M 15 235" fill="none" stroke="rgb(0, 0, 0)" stroke-linecap="square" stroke-miterlimit="10" pointer-events="none"/></g><g><rect x="15" y="205" width="30" height="30" fill="none" stroke="none" pointer-events="all"/><path d="M 15 205 M 45 205 M 45 235 M 15 235" fill="none" stroke="rgb(0, 0, 0)" stroke-linecap="square" stroke-miterlimit="10" pointer-events="all"/></g><g><rect x="45" y="205" width="220" height="30" fill="none" stroke="none" pointer-events="all"/><path d="M 45 205 M 265 205 M 265 235 M 45 235" fill="none" stroke="rgb(0, 0, 0)" stroke-linecap="square" stroke-miterlimit="10" pointer-events="all"/></g><g><g fill="rgb(0, 0, 0)" font-family="Helvetica" clip-path="url(#mx-clip-51-205-214-30-0)" font-size="12px"><text x="52.5" y="224.5">artist_id</text></g></g><g><path d="M 15 235 M 265 235 M 265 265 M 15 265" fill="none" stroke="rgb(0, 0, 0)" stroke-linecap="square" stroke-miterlimit="10" pointer-events="none"/></g><g><rect x="15" y="235" width="30" height="30" fill="none" stroke="none" pointer-events="all"/><path d="M 15 235 M 45 235 M 45 265 M 15 265" fill="none" stroke="rgb(0, 0, 0)" stroke-linecap="square" stroke-miterlimit="10" pointer-events="all"/></g><g><rect x="45" y="235" width="220" height="30" fill="none" stroke="none" pointer-events="all"/><path d="M 45 235 M 265 235 M 265 265 M 45 265" fill="none" stroke="rgb(0, 0, 0)" stroke-linecap="square" stroke-miterlimit="10" pointer-events="all"/></g><g><g fill="rgb(0, 0, 0)" font-family="Helvetica" clip-path="url(#mx-clip-51-235-214-30-0)" font-size="12px"><text x="52.5" y="254.5">feature?</text></g></g><g><path d="M 305 410 L 285 410 L 285 220 L 265 220" fill="none" stroke="rgb(0, 0, 0)" stroke-miterlimit="10" pointer-events="stroke"/><path d="M 301 414 L 301 406" fill="none" stroke="rgb(0, 0, 0)" stroke-miterlimit="10" pointer-events="all"/><path d="M 265 224 L 273 220 L 265 216" fill="none" stroke="rgb(0, 0, 0)" stroke-miterlimit="10" pointer-events="all"/></g><g><path d="M 305 60 L 285 60 L 285 190 L 265 190" fill="none" stroke="rgb(0, 0, 0)" stroke-miterlimit="10" pointer-events="stroke"/><path d="M 301 64 L 301 56" fill="none" stroke="rgb(0, 0, 0)" stroke-miterlimit="10" pointer-events="all"/><path d="M 265 194 L 273 190 L 265 186" fill="none" stroke="rgb(0, 0, 0)" stroke-miterlimit="10" pointer-events="all"/></g><g><path d="M 935 45 L 935 15 L 1195 15 L 1195 45" fill="rgb(255, 255, 255)" stroke="rgb(0, 0, 0)" stroke-miterlimit="10" pointer-events="all"/><path d="M 935 45 L 935 105 L 1195 105 L 1195 45" fill="none" stroke="rgb(0, 0, 0)" stroke-miterlimit="10" pointer-events="none"/><path d="M 935 45 L 1195 45" fill="none" stroke="rgb(0, 0, 0)" stroke-miterlimit="10" pointer-events="none"/><path d="M 975 45 L 975 75 L 975 105" fill="none" stroke="rgb(0, 0, 0)" stroke-miterlimit="10" pointer-events="none"/></g><g><g fill="rgb(0, 0, 0)" font-family="Helvetica" font-weight="bold" text-anchor="middle" font-size="12px"><text x="1064.5" y="34.5">Person</text></g></g><g><path d="M 935 45 M 1195 45 M 1195 75 L 935 75" fill="none" stroke="rgb(0, 0, 0)" stroke-linecap="square" stroke-miterlimit="10" pointer-events="none"/></g><g><rect x="935" y="45" width="40" height="30" fill="none" stroke="none" pointer-events="all"/><path d="M 935 45 M 975 45 M 975 75 M 935 75" fill="none" stroke="rgb(0, 0, 0)" stroke-linecap="square" stroke-miterlimit="10" pointer-events="all"/></g><g><g fill="rgb(0, 0, 0)" font-family="Helvetica" font-weight="bold" clip-path="url(#mx-clip-935-45-40-30-0)" text-anchor="middle" font-size="12px"><text x="954.5" y="64.5">PK</text></g></g><g><rect x="975" y="45" width="220" height="30" fill="none" stroke="none" pointer-events="all"/><path d="M 975 45 M 1195 45 M 1195 75 M 975 75" fill="none" stroke="rgb(0, 0, 0)" stroke-linecap="square" stroke-miterlimit="10" pointer-events="all"/></g><g><g fill="rgb(0, 0, 0)" font-family="Helvetica" font-weight="bold" text-decoration="underline" clip-path="url(#mx-clip-981-45-214-30-0)" font-size="12px"><text x="982.5" y="64.5">person_id</text></g></g><g><path d="M 935 75 M 1195 75 M 1195 105 M 935 105" fill="none" stroke="rgb(0, 0, 0)" stroke-linecap="square" stroke-miterlimit="10" pointer-events="none"/></g><g><rect x="935" y="75" width="40" height="30" fill="none" stroke="none" pointer-events="all"/><path d="M 935 75 M 975 75 M 975 105 M 935 105" fill="none" stroke="rgb(0, 0, 0)" stroke-linecap="square" stroke-miterlimit="10" pointer-events="all"/></g><g><rect x="975" y="75" width="220" height="30" fill="none" stroke="none" pointer-events="all"/><path d="M 975 75 M 1195 75 M 1195 105 M 975 105" fill="none" stroke="rgb(0, 0, 0)" stroke-linecap="square" stroke-miterlimit="10" pointer-events="all"/></g><g><g fill="rgb(0, 0, 0)" font-family="Helvetica" clip-path="url(#mx-clip-981-75-214-30-0)" font-size="12px"><text x="982.5" y="94.5">anonymised_name</text></g></g><g><path d="M 935 60 L 905 60 L 905 120 L 875 120" fill="none" stroke="rgb(0, 0, 0)" stroke-miterlimit="10" pointer-events="stroke"/><path d="M 931 64 L 931 56" fill="none" stroke="rgb(0, 0, 0)" stroke-miterlimit="10" pointer-events="all"/><path d="M 875 124 L 883 120 L 875 116" fill="none" stroke="rgb(0, 0, 0)" stroke-miterlimit="10" pointer-events="all"/></g></g></svg>